<svg width="32" height="32" viewBox="0 0 32 32" fill="none" xmlns="http://www.w3.org/2000/svg">
  <!-- Côté gauche rouge -->
  <g transform="rotate(-20 16 16)">
    <!-- Rangée 1 -->
    <rect x="6" y="4" width="3" height="3" fill="#e53e3e" rx="0.5"/>
    <rect x="10" y="4" width="3" height="3" fill="#e53e3e" rx="0.5"/>
    <rect x="14" y="4" width="3" height="3" fill="#e53e3e" rx="0.5"/>
    
    <!-- Rangée 2 -->
    <rect x="6" y="8" width="3" height="3" fill="#e53e3e" rx="0.5"/>
    <rect x="10" y="8" width="3" height="3" fill="#e53e3e" rx="0.5"/>
    <rect x="14" y="8" width="3" height="3" fill="#e53e3e" rx="0.5"/>
    
    <!-- Rangée 3 -->
    <rect x="6" y="12" width="3" height="3" fill="#e53e3e" rx="0.5"/>
    <rect x="10" y="12" width="3" height="3" fill="#e53e3e" rx="0.5"/>
    <rect x="14" y="12" width="3" height="3" fill="#e53e3e" rx="0.5"/>
    
    <!-- Rangée 4 -->
    <rect x="6" y="16" width="3" height="3" fill="#e53e3e" rx="0.5"/>
    <rect x="10" y="16" width="3" height="3" fill="#e53e3e" rx="0.5"/>
    <rect x="14" y="16" width="3" height="3" fill="#e53e3e" rx="0.5"/>
  </g>
  
  <!-- Côté droit bleu -->
  <g transform="rotate(20 16 16)">
    <!-- Rangée 1 -->
    <rect x="15" y="4" width="3" height="3" fill="#3182ce" rx="0.5"/>
    <rect x="19" y="4" width="3" height="3" fill="#3182ce" rx="0.5"/>
    <rect x="23" y="4" width="3" height="3" fill="#3182ce" rx="0.5"/>
    
    <!-- Rangée 2 -->
    <rect x="15" y="8" width="3" height="3" fill="#3182ce" rx="0.5"/>
    <rect x="19" y="8" width="3" height="3" fill="#3182ce" rx="0.5"/>
    <rect x="23" y="8" width="3" height="3" fill="#3182ce" rx="0.5"/>
    
    <!-- Rangée 3 -->
    <rect x="15" y="12" width="3" height="3" fill="#3182ce" rx="0.5"/>
    <rect x="19" y="12" width="3" height="3" fill="#3182ce" rx="0.5"/>
    <rect x="23" y="12" width="3" height="3" fill="#3182ce" rx="0.5"/>
    
    <!-- Rangée 4 -->
    <rect x="15" y="16" width="3" height="3" fill="#3182ce" rx="0.5"/>
    <rect x="19" y="16" width="3" height="3" fill="#3182ce" rx="0.5"/>
    <rect x="23" y="16" width="3" height="3" fill="#3182ce" rx="0.5"/>
  </g>
</svg>